<svg id="icon" height="512" viewBox="0 0 128 128" width="512" xmlns="http://www.w3.org/2000/svg"><rect fill="#575b6d" height="43.824" rx="4.311" width="75.453" x="30.047" y="57.903"/><path d="m39.745 60.058h57.644v39.513h-57.644z" fill="#69b0ee"/><circle cx="34.896" cy="80.174" fill="#828a9e" r="2.335"/><rect fill="#828a9e" height="8.937" rx=".898" width="1.796" x="100.545" y="75.346"/><rect fill="#575b6d" height="75.453" rx="4.311" width="43.824" x="22.5" y="26.273"/><path d="m24.655 34.384h39.513v57.644h-39.513z" fill="#69b0ee"/><circle cx="44.771" cy="96.877" fill="#828a9e" r="2.335"/><rect fill="#828a9e" height="1.796" rx=".898" width="8.937" x="39.943" y="29.433"/><g fill="#eeefee"><path d="m89.19 49.951-2.89-.038c0-5.785-1.163-9.038-3.657-11.526s-6.337-3.7-11.486-3.622l-.045-2.886c5.926-.086 10.5 1.408 13.569 4.464s4.587 7.639 4.509 13.608z"/><path d="m92.632 48.173-4.728 6.457-4.727-6.457z"/><path d="m34.716 92.028h-6.326l19.394-57.644h6.327z" opacity=".5"/><path d="m41.758 92.028h-1.82l19.395-57.644h1.82z" opacity=".5"/></g></svg>